<svg width="59" height="39" viewBox="0 0 59 39" fill="none" xmlns="http://www.w3.org/2000/svg">
<path d="M56.5427 33.7142L49.0963 20.1057L56.1321 7.24736L58.5894 2.75668H53.4317H41.7443H39.6032H36.586L35.5157 4.71282L34.1293 7.24736H34.1377L34.1293 7.24976L32.1024 10.9465L34.6849 15.6641L38.0976 9.42744L38.0958 9.42384L39.287 7.24736H42.0605H50.9744L46.5175 15.3929L43.9386 20.1057L46.5175 24.8185L51.3849 33.7142H41.65H39.3535L37.9229 31.1001L32.0789 20.42L29.5 15.7072L24.8707 7.24736L23.4843 4.71282L22.414 2.75668L20.9054 0L19.3968 2.75668L18.3265 4.71282L16.9395 7.24736L2.45733 33.7142L0 38.2049H5.15772H17.1892H22.3469L24.8042 33.7142H24.8036L26.8921 29.8954L24.3157 25.1837L19.6501 33.7142H19.6465H7.61505L20.9054 9.42564L26.9211 20.42L29.5 25.1328L34.1958 33.7142L35.344 35.8129L36.6531 38.2049H39.1926H41.8108H53.8423H59L56.5427 33.7142Z" fill="black"/>
</svg>
